<?xml version="1.0" standalone="no"?>
<!DOCTYPE svg PUBLIC "-//W3C//DTD SVG 20010904//EN"
 "http://www.w3.org/TR/2001/REC-SVG-20010904/DTD/svg10.dtd">
<svg version="1.0" xmlns="http://www.w3.org/2000/svg"
 width="800.000000pt" height="645.000000pt" viewBox="0 0 800.000000 645.000000"
 preserveAspectRatio="xMidYMid meet">

<g transform="translate(0.000000,645.000000) scale(0.100000,-0.100000)"
fill="#000000" stroke="none">
<path d="M6126 6428 c-9 -12 -16 -28 -16 -35 0 -20 -10 -16 -32 12 -26 34 -47
32 -55 -5 -3 -17 -9 -33 -14 -36 -5 -3 -29 14 -55 38 -52 47 -72 45 -86 -10
-7 -25 -14 -32 -33 -32 -14 0 -25 -4 -25 -10 0 -5 -13 -16 -28 -24 -15 -8 -40
-37 -56 -65 -23 -43 -30 -50 -45 -41 -13 6 -24 5 -37 -5 -11 -8 -29 -15 -40
-15 -24 0 -34 -18 -34 -60 0 -20 -7 -33 -21 -41 -20 -10 -21 -17 -15 -92 3
-45 5 -91 5 -102 -2 -19 -1 -61 1 -105 0 -11 0 -31 -1 -45 -1 -14 7 -35 17
-46 16 -18 27 -21 78 -16 56 5 60 4 93 -29 18 -19 49 -40 67 -48 25 -10 40
-27 54 -59 11 -25 29 -48 41 -52 18 -5 19 -9 9 -33 -16 -38 -57 -92 -69 -92
-6 0 -59 -23 -119 -51 -105 -48 -114 -51 -231 -60 -197 -14 -288 -45 -411
-138 -75 -57 -94 -63 -313 -102 -350 -61 -654 -163 -900 -301 -429 -240 -711
-528 -844 -861 -7 -17 -23 -32 -41 -38 -40 -14 -49 -47 -20 -71 12 -10 31 -18
41 -18 10 0 19 -2 19 -5 0 -11 -97 -174 -198 -334 -57 -90 -110 -178 -118
-197 -18 -43 -18 -115 0 -139 12 -17 18 -18 40 -7 14 6 46 30 70 52 l44 41 -4
-38 c-8 -66 34 -113 73 -81 9 7 34 35 55 61 l38 49 0 -90 c0 -66 4 -93 14
-101 30 -25 62 27 151 247 41 101 80 162 119 187 22 15 28 14 90 -17 l66 -32
23 22 c21 22 22 31 25 212 l3 190 49 0 48 0 17 53 c46 142 255 381 424 485
133 82 340 146 684 212 101 20 172 40 226 64 43 20 83 36 88 36 7 0 8 -16 3
-42 -4 -24 -11 -78 -15 -121 -8 -94 -19 -108 -101 -132 -33 -9 -99 -34 -148
-56 -48 -22 -155 -67 -237 -99 -82 -33 -220 -93 -306 -133 -87 -41 -194 -87
-237 -103 -99 -36 -136 -69 -136 -118 0 -41 35 -116 75 -164 18 -21 24 -38 20
-51 -3 -11 -59 -64 -123 -117 -267 -222 -369 -328 -518 -534 -101 -140 -133
-177 -160 -184 -15 -5 -95 43 -310 182 -446 291 -571 361 -709 398 -27 8 -64
14 -80 14 -26 0 -55 25 -198 168 -165 166 -226 212 -279 212 -32 0 -100 -46
-162 -109 l-49 -50 12 -39 c7 -22 10 -49 6 -61 -4 -12 -57 -75 -119 -139 -62
-64 -127 -139 -146 -167 -19 -27 -63 -86 -98 -130 -75 -91 -119 -159 -158
-238 -23 -46 -25 -58 -15 -71 15 -18 113 -56 145 -56 27 0 109 56 231 158 97
81 166 128 315 214 138 80 159 86 210 63 22 -10 43 -22 46 -27 3 -4 -10 -34
-29 -66 -82 -136 -127 -252 -127 -329 l0 -33 168 0 c189 0 244 -9 516 -84 214
-59 283 -92 431 -205 66 -51 152 -107 190 -126 150 -72 403 -127 487 -105 20
6 102 57 182 115 181 130 347 241 501 334 65 41 207 132 314 203 107 72 210
137 228 145 45 18 58 7 80 -66 55 -191 263 -598 483 -949 18 -29 31 -53 29
-55 -2 -1 -71 -26 -154 -54 -261 -88 -376 -133 -515 -197 -146 -69 -195 -86
-490 -171 -267 -78 -380 -128 -491 -221 -22 -18 -50 -34 -60 -34 -11 0 -45 13
-77 29 -89 45 -215 81 -283 81 -103 0 -115 -25 -176 -352 -4 -22 1 -30 28 -47
19 -12 37 -22 40 -23 3 -2 0 -84 -8 -183 -11 -141 -12 -202 -3 -283 29 -271
112 -429 207 -397 44 16 60 63 73 215 16 181 32 254 86 385 25 61 51 129 57
153 9 36 14 42 36 42 14 0 70 5 125 12 92 11 99 11 112 -6 19 -26 43 -142 54
-259 8 -78 14 -106 29 -121 28 -28 47 -14 71 52 27 73 58 104 180 178 288 175
450 233 960 344 202 45 290 72 398 125 119 57 170 93 255 174 73 70 116 137
169 266 l33 80 -1 205 c-1 241 -6 276 -103 740 -73 345 -93 420 -142 529 -53
116 -37 108 61 -31 40 -57 100 -150 133 -208 32 -58 90 -155 128 -215 38 -61
78 -137 89 -169 11 -33 25 -65 31 -72 20 -24 109 -16 109 10 0 6 10 16 23 21
30 13 154 264 201 404 73 223 73 341 -4 621 -61 225 -80 322 -81 415 -1 110
42 385 61 385 13 0 344 -666 394 -792 25 -65 75 -215 110 -335 36 -120 81
-259 100 -310 19 -50 49 -143 66 -206 20 -70 54 -159 88 -228 52 -102 60 -114
90 -121 25 -7 32 -13 28 -25 -40 -102 -92 -381 -80 -428 13 -53 61 -58 113
-13 47 41 48 33 21 -124 -30 -168 -30 -236 -2 -276 13 -17 32 -34 43 -37 37
-12 59 25 94 151 18 66 40 137 50 159 l17 40 28 -77 c34 -94 60 -131 100 -148
44 -18 57 -2 65 78 3 37 9 79 11 94 l6 28 25 -30 c31 -38 78 -42 87 -8 3 13 6
76 6 140 l0 117 28 13 c26 13 27 15 25 93 -2 68 -33 211 -69 316 -5 14 2 16
35 15 26 0 50 6 68 20 25 19 28 28 31 83 4 88 -27 202 -94 340 -52 109 -99
189 -268 456 -38 61 -99 166 -136 235 -37 69 -97 177 -134 240 -159 277 -379
781 -531 1219 -68 197 -92 251 -139 316 -42 58 -43 66 -15 104 11 15 23 46 26
69 4 29 13 46 30 57 13 9 31 31 39 49 15 30 15 38 0 95 -9 34 -16 70 -16 80 0
10 20 44 45 75 27 35 45 69 45 85 0 14 7 51 15 81 17 64 19 90 5 90 -5 0 -16
-13 -25 -30 -29 -56 -42 -38 -47 63 -5 113 -19 145 -79 176 -29 16 -57 41 -74
68 -23 37 -72 83 -89 83 -3 0 -18 -14 -34 -31 l-29 -31 -39 20 c-74 38 -92 44
-114 37 -14 -4 -34 0 -55 11 -28 15 -38 16 -60 6 -21 -10 -30 -9 -49 4 -23 14
-25 14 -40 -8z m369 -504 c78 -37 148 -124 99 -124 -8 0 -51 19 -95 41 l-81
42 -92 -5 c-50 -3 -101 -10 -111 -15 -33 -18 -125 -42 -125 -34 0 15 72 64
129 88 70 28 223 33 276 7z m-35 -315 c35 -49 45 -93 31 -132 -13 -33 -7 -34
61 -2 65 30 88 32 88 5 0 -41 -25 -72 -90 -110 -41 -24 -77 -55 -95 -80 -86
-124 -284 -250 -393 -250 -63 0 -132 28 -155 63 -40 61 -28 139 47 300 25 55
50 117 56 138 l11 39 77 0 c76 0 185 23 252 53 58 25 77 21 110 -24z m-562
-581 c24 -26 60 -52 80 -59 83 -27 214 -5 332 56 l33 17 -7 -42 c-10 -62 -39
-112 -96 -163 -59 -53 -137 -86 -226 -94 -111 -10 -179 42 -224 171 -29 82
-28 118 5 168 l28 42 16 -24 c9 -14 35 -46 59 -72z m-2464 -1415 c-4 -93 -7
-169 -8 -170 -1 -1 -22 11 -46 27 -58 39 -81 38 -128 -4 -42 -38 -76 -102
-122 -226 -29 -77 -57 -140 -64 -140 -2 0 12 50 31 112 40 131 40 173 3 173
-21 0 -33 -14 -72 -80 -80 -138 -99 -168 -103 -163 -3 2 9 36 25 74 34 79 39
131 13 141 -11 4 -25 -4 -42 -24 -110 -128 -134 -154 -138 -150 -2 3 29 61 70
129 41 67 108 191 150 274 61 122 81 153 104 163 41 17 135 28 241 30 l92 1
-6 -167z m-1710 -92 l88 -89 -46 -31 c-50 -34 -86 -78 -105 -128 -17 -43 -34
-55 -121 -87 -189 -71 -313 -165 -475 -359 -53 -65 -88 -88 -107 -69 -13 13
31 90 163 287 118 177 132 193 229 278 47 40 128 122 180 180 52 59 97 107
100 107 3 0 45 -40 94 -89z m2362 -23 c134 -119 228 -177 334 -204 134 -34
367 2 491 76 77 47 82 47 174 -25 111 -87 184 -115 320 -124 95 -6 100 -7 112
-32 7 -14 35 -138 62 -275 27 -137 65 -316 85 -399 49 -207 73 -352 91 -544
19 -209 19 -294 -1 -362 -8 -30 -24 -84 -35 -121 -11 -37 -31 -81 -46 -98 -27
-33 -180 -115 -293 -157 -36 -14 -99 -31 -140 -39 -41 -8 -95 -21 -120 -28
-25 -8 -76 -17 -115 -21 -296 -27 -783 -211 -1023 -385 -46 -33 -87 -60 -91
-60 -14 0 -109 443 -99 462 5 10 26 27 48 38 32 16 286 96 478 149 24 7 121
49 215 93 95 44 221 100 280 124 115 46 395 187 446 225 29 21 34 22 67 10 19
-7 38 -10 41 -7 8 7 -51 129 -129 266 -100 176 -304 570 -360 694 -28 61 -65
136 -84 167 -36 60 -40 81 -23 125 26 71 -18 101 -83 56 -24 -15 -77 -47 -118
-69 -131 -70 -964 -613 -1034 -673 -68 -60 -128 -90 -178 -90 -51 0 -341 86
-412 122 -23 12 -84 55 -136 98 -117 93 -245 171 -325 198 -209 71 -495 95
-699 61 -32 -6 -61 -8 -64 -5 -3 3 12 34 33 68 56 93 264 399 288 426 31 34
67 28 144 -24 81 -56 445 -290 569 -367 146 -90 340 -187 374 -187 64 0 129
58 233 206 92 131 241 293 407 442 85 76 175 162 198 190 24 29 47 52 52 52 4
0 34 -24 66 -52z m-2149 -157 l51 -38 -70 -82 c-38 -44 -74 -81 -79 -81 -13 0
-91 53 -107 73 -10 12 -4 26 34 76 48 65 79 91 104 91 9 0 39 -17 67 -39z
m5827 -963 c7 -13 26 -77 41 -143 25 -109 27 -125 16 -178 -7 -32 -17 -70 -22
-84 l-10 -26 -27 26 c-54 52 -65 35 -81 -121 -19 -183 -44 -212 -62 -72 -10
86 -29 120 -65 120 -18 0 -30 -9 -42 -31 -9 -17 -25 -41 -35 -53 -17 -20 -17
-19 -11 39 18 154 -9 196 -94 143 l-35 -21 6 34 c3 19 14 88 23 154 10 66 21
125 26 132 10 12 147 60 248 87 80 21 107 20 124 -6z m-4464 -1194 c36 -9 68
-20 72 -23 4 -4 1 -27 -6 -52 -25 -81 -29 -168 -12 -239 l15 -65 -65 -131 -66
-132 -12 -133 -12 -134 -7 85 c-4 47 -7 169 -7 272 0 192 -5 226 -42 265 l-21
22 26 79 c14 43 29 109 33 146 6 54 10 66 23 62 9 -3 45 -12 81 -22z m300 -88
c19 0 49 4 67 8 28 7 33 5 42 -15 8 -22 32 -181 27 -186 -8 -9 -261 -22 -269
-14 -5 5 -8 48 -6 96 4 78 7 89 28 106 18 15 32 18 50 13 14 -5 42 -8 61 -8z"/>
<path d="M6068 5539 c-22 -12 -35 -76 -19 -92 20 -20 43 15 39 61 -3 35 -5 39
-20 31z"/>
<path d="M6211 5506 c-7 -8 -11 -34 -9 -58 l3 -43 23 35 c23 36 26 71 6 77 -6
2 -16 -3 -23 -11z"/>
<path d="M6064 5426 c-49 -48 -55 -75 -23 -107 27 -27 44 -20 45 19 0 17 12
48 27 69 52 75 19 88 -49 19z"/>
<path d="M6176 5261 c-9 -10 -36 -22 -58 -25 -69 -11 -90 -43 -43 -64 36 -16
96 -15 121 3 26 17 48 69 40 90 -8 21 -39 19 -60 -4z"/>
<path d="M2484 6285 c-18 -43 -19 -211 -2 -269 25 -86 193 -212 307 -231 23
-4 41 -10 41 -13 0 -4 -33 -29 -72 -57 -124 -86 -138 -101 -138 -149 0 -74 67
-194 165 -296 l84 -87 -14 -54 c-8 -30 -15 -68 -15 -85 0 -55 -55 -147 -131
-218 -76 -72 -182 -153 -269 -205 -145 -87 -162 -162 -34 -146 l56 7 -4 -89
c-3 -72 -9 -101 -36 -160 -50 -111 -43 -174 22 -197 28 -10 87 12 124 48 67
62 93 147 118 378 16 160 30 199 97 277 49 57 77 107 77 138 0 10 5 34 10 54
9 32 15 36 61 48 95 25 145 105 122 193 -6 21 -7 38 -4 38 4 0 43 33 87 73 59
54 99 81 147 100 82 33 93 33 101 4 11 -47 45 -77 85 -77 44 0 61 15 90 80
l20 45 138 0 c121 0 142 3 173 21 69 40 103 130 63 167 -10 8 -38 19 -63 24
-38 7 -48 15 -67 48 -12 21 -20 42 -18 46 3 3 28 10 57 13 159 21 193 44 296
194 72 106 96 169 87 232 -14 89 -35 99 -119 51 -28 -16 -111 -50 -184 -76
-73 -25 -176 -64 -230 -85 -97 -38 -97 -38 -106 -16 -32 77 -50 106 -73 121
-22 15 -33 16 -87 5 -81 -16 -166 -52 -247 -106 -37 -24 -72 -44 -79 -44 -7 0
-38 16 -70 36 -55 34 -63 36 -181 43 -68 4 -134 13 -147 20 -12 6 -47 45 -77
86 -61 82 -88 105 -123 105 -17 0 -27 -9 -38 -35z m131 -219 c60 -79 68 -81
238 -78 84 2 179 -2 213 -8 l60 -12 133 57 c90 39 151 59 190 62 64 6 58 10
114 -76 12 -19 30 -39 39 -45 25 -15 112 6 290 70 84 31 167 59 184 61 28 4
32 1 47 -34 18 -46 13 -58 -50 -111 -55 -45 -144 -92 -294 -153 -97 -40 -110
-43 -201 -43 -81 -1 -101 -4 -125 -22 -33 -24 -73 -97 -73 -134 0 -14 -5 -41
-10 -61 l-10 -36 -69 -6 c-38 -3 -82 -12 -98 -21 -37 -19 -103 -91 -148 -161
l-35 -55 -73 51 c-39 28 -85 63 -100 78 -34 31 -107 138 -107 155 0 7 26 30
57 52 31 21 79 67 106 102 55 70 73 83 102 71 11 -4 26 -8 33 -8 22 -2 13 44
-16 78 -27 33 -29 34 -133 40 -119 8 -168 27 -242 92 -49 42 -97 127 -97 168
l1 26 22 -30 c12 -16 36 -47 52 -69z m1270 -505 c18 -7 17 -9 -10 -27 -23 -15
-51 -20 -132 -22 -57 -2 -103 -1 -103 3 0 19 39 34 85 35 28 0 57 5 65 10 18
11 67 12 95 1z m-880 -436 c0 -27 -5 -32 -50 -47 -27 -9 -52 -15 -53 -13 -8 8
10 44 33 70 35 36 70 31 70 -10z m-359 -557 c-3 -13 -10 -57 -17 -98 -17 -111
-54 -210 -79 -210 -4 0 -5 30 -3 68 3 41 -1 88 -10 122 -14 53 -14 56 7 79 25
28 76 61 94 61 8 0 11 -8 8 -22z"/>
<path d="M3356 5989 c-20 -23 -26 -42 -26 -77 l0 -46 29 28 c26 25 34 27 70
21 38 -6 41 -5 41 17 0 12 -9 38 -20 56 -26 42 -59 43 -94 1z"/>
<path d="M647 5836 c-132 -55 -253 -150 -296 -234 -33 -65 -51 -158 -51 -268
0 -153 33 -246 121 -340 73 -77 148 -108 272 -112 53 -2 97 -6 97 -9 0 -2 -38
-40 -85 -84 -55 -53 -122 -133 -191 -230 -110 -154 -143 -189 -176 -189 -11 0
-32 -12 -47 -27 -22 -22 -30 -44 -40 -105 -13 -79 -15 -84 -108 -212 -61 -83
-68 -175 -17 -235 34 -41 79 -48 136 -23 49 21 104 88 191 231 82 134 148 191
266 231 33 11 63 20 66 20 3 0 3 -30 -1 -66 -4 -38 -2 -107 6 -163 11 -83 10
-108 -4 -182 -23 -124 -21 -219 5 -253 44 -55 124 -15 173 88 25 52 70 212
101 358 19 88 55 146 108 171 26 13 63 17 145 17 61 0 146 5 189 11 90 12 254
64 342 108 33 17 63 31 65 31 3 0 1 -12 -5 -27 -22 -60 -79 -290 -79 -323 0
-20 6 -44 14 -55 7 -11 19 -37 25 -58 16 -47 35 -57 108 -57 48 0 68 5 105 29
58 37 73 66 98 186 13 67 30 117 56 163 96 173 96 172 90 205 -3 18 -12 72
-20 120 -20 121 -34 159 -54 155 -15 -3 -17 -21 -14 -157 l3 -153 -45 -48
c-59 -63 -81 -109 -110 -230 -13 -56 -30 -108 -37 -115 -8 -7 -47 -16 -86 -20
l-73 -7 25 55 c13 30 40 109 60 174 19 65 49 155 65 201 38 105 42 202 9 230
-67 56 -88 86 -119 164 -18 45 -38 89 -43 96 -17 21 -37 -7 -37 -52 0 -57 55
-217 96 -277 19 -28 34 -52 34 -54 0 -6 -172 -66 -242 -84 -43 -11 -126 -25
-185 -31 -60 -5 -155 -15 -213 -21 -90 -10 -113 -9 -160 5 -29 9 -57 16 -62
16 -16 0 -8 -44 12 -65 l19 -21 -45 -54 c-56 -66 -120 -198 -166 -338 l-33
-103 -7 98 c-4 54 -10 159 -14 233 l-6 135 61 39 c116 73 181 176 189 294 4
58 3 64 -14 60 -10 -2 -33 -30 -52 -63 -18 -33 -43 -70 -55 -83 -26 -27 -143
-85 -278 -137 -125 -48 -180 -91 -238 -186 -25 -42 -69 -102 -98 -135 -29 -32
-69 -83 -90 -113 -58 -84 -68 -72 -17 19 44 77 46 87 53 182 6 89 9 102 30
119 13 10 34 19 47 19 27 0 93 38 138 79 15 14 60 69 99 121 80 108 166 196
282 290 66 54 81 71 83 98 3 29 10 35 79 67 157 75 280 106 503 125 259 22
525 82 661 149 141 68 369 251 356 284 -13 34 -90 16 -177 -43 -30 -20 -89
-60 -130 -88 -121 -85 -325 -139 -615 -162 -162 -13 -185 -16 -315 -46 -144
-33 -288 -79 -397 -125 -60 -25 -107 -39 -135 -39 -110 0 -296 78 -366 154
-107 116 -71 283 91 428 165 149 207 193 207 221 0 27 -24 47 -57 47 -10 0
-44 -11 -76 -24z"/>
<path d="M80 5731 c-11 -16 -32 -60 -47 -98 -22 -57 -26 -84 -27 -168 0 -74 4
-110 17 -139 27 -61 40 -35 26 55 l-12 74 47 139 c26 77 45 145 42 153 -8 21
-23 15 -46 -16z"/>
<path d="M4607 5370 c-190 -33 -339 -71 -508 -129 -234 -81 -478 -198 -558
-268 -30 -26 -34 -34 -25 -50 19 -31 46 -26 164 33 291 143 675 272 1043 350
142 30 168 43 151 71 -17 27 -76 25 -267 -7z"/>
<path d="M2504 5155 c-23 -36 -75 -215 -72 -250 4 -42 32 -45 56 -5 26 42 76
233 67 259 -9 28 -31 27 -51 -4z"/>
<path d="M1675 2336 c-78 -19 -125 -39 -164 -72 -36 -30 -38 -44 -12 -68 18
-16 23 -16 104 3 46 12 107 21 133 21 115 0 476 -65 642 -116 98 -29 136 -29
140 3 8 59 -186 152 -430 207 -145 33 -326 42 -413 22z"/>
<path d="M4405 1943 c-53 -28 -157 -66 -454 -168 -101 -35 -187 -69 -192 -76
-53 -86 247 -15 547 130 132 64 174 95 174 128 0 19 -19 15 -75 -14z"/>
</g>
</svg>
